<svg id="Calque_1" data-name="Calque 1" xmlns="http://www.w3.org/2000/svg" viewBox="0 0 120 120"><title>Plan de travail 1</title><path d="M58,50.35h0a2.26,2.26,0,0,0,.7.19l.21,0a2.65,2.65,0,0,0,.56,0l.2,0,.11,0a2.39,2.39,0,0,0,.58-.28l0,0a2.19,2.19,0,0,0,.49-.47l.07-.06,8.47-11.89a1.67,1.67,0,0,0-.63-2.55,2.44,2.44,0,0,0-3,.75l-4.57,6.41A47.72,47.72,0,0,0,56.87,28C47.24,7.4,22.94-2.62,2.71,5.67A2,2,0,0,0,1.39,7.91c0,.09.06.18.1.27a2.17,2.17,0,0,0,2.8.87c18-7.38,39.81,1.86,48.6,20.66a45.19,45.19,0,0,1,4.21,14l-6.51-6.35a2.37,2.37,0,0,0-3,0A1.74,1.74,0,0,0,47.28,40L57.54,50A1.78,1.78,0,0,0,58,50.35Z" style="fill:#1e0000"/></svg>