<svg id="Calque_1" data-name="Calque 1" xmlns="http://www.w3.org/2000/svg" viewBox="0 0 120 120"><title>Plan de travail 1</title><path d="M61.62,48.27l10.26-10a1.74,1.74,0,0,0-.27-2.66,2.37,2.37,0,0,0-3,0L62.06,42a45.49,45.49,0,0,1,4.21-14c8.79-18.8,30.58-28,48.61-20.66a2.16,2.16,0,0,0,2.79-.87c0-.09.07-.18.1-.27a2,2,0,0,0-1.31-2.24C96.22-4.37,71.92,5.65,62.29,26.26a48,48,0,0,0-4.42,14.32L53.3,34.17a2.44,2.44,0,0,0-3-.75A1.67,1.67,0,0,0,49.69,36l8.47,11.89.07.06a2.19,2.19,0,0,0,.49.47l.05,0a2.39,2.39,0,0,0,.58.28l.11,0,.2,0a2.65,2.65,0,0,0,.56,0l.22,0a2.28,2.28,0,0,0,.69-.19h0A1.78,1.78,0,0,0,61.62,48.27Z" style="fill:#1e0000"/></svg>